{"asset":{"generator":"Khronos glTF Blender I/O v1.6.16","version":"2.0"},"scene":0,"scenes":[{"name":"Scene","nodes":[0]}],"nodes":[{"mesh":0,"name":"sofa_03"}],"materials":[{"doubleSided":true,"name":"sofa_03","pbrMetallicRoughness":{"metallicFactor":0,"baseColorTexture":{"index":0}}},{"alphaMode":"BLEND","doubleSided":true,"name":"sofa_03_fringe","pbrMetallicRoughness":{"metallicFactor":0,"baseColorTexture":{"index":0}}}],"meshes":[{"name":"Mesh.009","primitives":[{"attributes":{"POSITION":0,"NORMAL":1,"TEXCOORD_0":2},"indices":3,"material":0},{"attributes":{"POSITION":4,"NORMAL":5,"TEXCOORD_0":6},"indices":7,"material":1}]}],"accessors":[{"bufferView":0,"componentType":5126,"count":4507,"max":[1.365588665008545,1.1188924312591553,0.46120065450668335],"min":[-1.365588665008545,0.0006283945986069739,-0.46388354897499084],"type":"VEC3"},{"bufferView":1,"componentType":5126,"count":4507,"type":"VEC3"},{"bufferView":2,"componentType":5126,"count":4507,"type":"VEC2"},{"bufferView":3,"componentType":5123,"count":20982,"type":"SCALAR"},{"bufferView":4,"componentType":5126,"count":1148,"max":[1.1109504699707031,1.0264620780944824,0.2057821899652481],"min":[-1.1109505891799927,0.4996996223926544,-0.3475067615509033],"type":"VEC3"},{"bufferView":5,"componentType":5126,"count":1148,"type":"VEC3"},{"bufferView":6,"componentType":5126,"count":1148,"type":"VEC2"},{"bufferView":7,"componentType":5123,"count":3030,"type":"SCALAR"}],"bufferViews":[{"buffer":0,"byteLength":54084,"byteOffset":0},{"buffer":0,"byteLength":54084,"byteOffset":54084},{"buffer":0,"byteLength":36056,"byteOffset":108168},{"buffer":0,"byteLength":41964,"byteOffset":144224},{"buffer":0,"byteLength":13776,"byteOffset":186188},{"buffer":0,"byteLength":13776,"byteOffset":199964},{"buffer":0,"byteLength":9184,"byteOffset":213740},{"buffer":0,"byteLength":6060,"byteOffset":222924}],"buffers":[{"byteLength":228984,"uri":"sofa_03.bin"}],"images":[{"uri":"sofa_03_diff_1k.jpg"}],"samplers":[{"magFilter":9729,"minFilter":9987,"wrapS":10497,"wrapT":10497}],"textures":[{"sampler":0,"source":0}]}