{"asset":{"generator":"Khronos glTF Blender I/O v1.6.16","version":"2.0"},"scene":0,"scenes":[{"name":"Scene","nodes":[0]}],"nodes":[{"mesh":0,"name":"Shelf_01"}],"materials":[{"doubleSided":true,"name":"Shelf_01","pbrMetallicRoughness":{"baseColorTexture":{"index":0}}}],"meshes":[{"name":"Cube.001","primitives":[{"attributes":{"POSITION":0,"NORMAL":1,"TEXCOORD_0":2},"indices":3,"material":0}]}],"accessors":[{"bufferView":0,"componentType":5126,"count":362,"max":[0.5017218589782715,2.080310344696045,0.25697916746139526],"min":[-0.5017218589782715,0,-3.3892558803927386e-07],"type":"VEC3"},{"bufferView":1,"componentType":5126,"count":362,"type":"VEC3"},{"bufferView":2,"componentType":5126,"count":362,"type":"VEC2"},{"bufferView":3,"componentType":5123,"count":546,"type":"SCALAR"}],"bufferViews":[{"buffer":0,"byteLength":4344,"byteOffset":0},{"buffer":0,"byteLength":4344,"byteOffset":4344},{"buffer":0,"byteLength":2896,"byteOffset":8688},{"buffer":0,"byteLength":1092,"byteOffset":11584}],"buffers":[{"byteLength":12676,"uri":"Shelf_01.bin"}],"images":[{"uri":"Shelf_01_diff_1k.jpg"}],"samplers":[{"magFilter":9729,"minFilter":9987,"wrapS":10497,"wrapT":10497}],"textures":[{"sampler":0,"source":0}]}