{
  "accessors": [
    {
      "bufferView": 2,
      "componentType": 5126,
      "count": 2791,
      "max": [
        55.99703598022461,
        28.83635902404785,
        66.71063232421875
      ],
      "min": [
        -17.5,
        -33.00844192504883,
        -0.26504331827163696
      ],
      "type": "VEC3"
    },
    {
      "bufferView": 2,
      "byteOffset": 33492,
      "componentType": 5126,
      "count": 2791,
      "max": [
        1,
        1,
        1
      ],
      "min": [
        -1,
        -1,
        -1
      ],
      "type": "VEC3"
    },
    {
      "bufferView": 3,
      "componentType": 5126,
      "count": 2791,
      "max": [
        1,
        1,
        1,
        1
      ],
      "min": [
        -1,
        -1,
        -1,
        -1
      ],
      "type": "VEC4"
    },
    {
      "bufferView": 1,
      "componentType": 5126,
      "count": 2791,
      "max": [
        0.9959198832511902,
        0.9927005171775818
      ],
      "min": [
        0.011225292459130287,
        0.005702974274754524
      ],
      "type": "VEC2"
    },
    {
      "bufferView": 0,
      "componentType": 5125,
      "count": 10296,
      "type": "SCALAR"
    }
  ],
  "asset": {
    "extras": {
      "author": "JennyB (https://sketchfab.com/jenny77)",
      "license": "CC-BY-4.0 (http://creativecommons.org/licenses/by/4.0/)",
      "source": "https://sketchfab.com/3d-models/vintage-record-player-6f3b6984c2f74d64b08833b5f61c2253",
      "title": "Vintage record player",
      "tenebrae": {
        "recordCenter": [
          0,
          1.64,
          -0.03
        ],
        "recordRadius": 17.46,
        "fitScale": 0.016
      }
    },
    "generator": "Sketchfab-12.68.0",
    "version": "2.0"
  },
  "bufferViews": [
    {
      "buffer": 0,
      "byteLength": 41184,
      "name": "floatBufferViews",
      "target": 34963
    },
    {
      "buffer": 0,
      "byteLength": 22328,
      "byteOffset": 41184,
      "byteStride": 8,
      "name": "floatBufferViews",
      "target": 34962
    },
    {
      "buffer": 0,
      "byteLength": 66984,
      "byteOffset": 63512,
      "byteStride": 12,
      "name": "floatBufferViews",
      "target": 34962
    },
    {
      "buffer": 0,
      "byteLength": 44656,
      "byteOffset": 130496,
      "byteStride": 16,
      "name": "floatBufferViews",
      "target": 34962
    }
  ],
  "buffers": [
    {
      "byteLength": 175152,
      "uri": "vintage_record_player.bin"
    }
  ],
  "images": [
    {
      "uri": "vintage_record_player_diff_1k.png"
    }
  ],
  "materials": [
    {
      "alphaCutoff": 0.5,
      "alphaMode": "MASK",
      "doubleSided": true,
      "name": "Material_42",
      "pbrMetallicRoughness": {
        "baseColorTexture": {
          "index": 0
        },
        "metallicFactor": 0.04,
        "roughnessFactor": 0.72
      }
    }
  ],
  "meshes": [
    {
      "name": "Box001_Material #42_0",
      "primitives": [
        {
          "attributes": {
            "NORMAL": 1,
            "POSITION": 0,
            "TANGENT": 2,
            "TEXCOORD_0": 3
          },
          "indices": 4,
          "material": 0,
          "mode": 4
        }
      ]
    }
  ],
  "nodes": [
    {
      "children": [
        1
      ],
      "matrix": [
        1,
        0,
        0,
        0,
        0,
        2.220446049250313e-16,
        -1,
        0,
        0,
        1,
        2.220446049250313e-16,
        0,
        0,
        0,
        0,
        1
      ],
      "name": "Sketchfab_model"
    },
    {
      "children": [
        2
      ],
      "matrix": [
        1,
        0,
        0,
        0,
        0,
        0,
        1,
        0,
        0,
        -1,
        0,
        0,
        0,
        0,
        0,
        1
      ],
      "name": "e67170e9191e46f9a69f5e4889a85c37.fbx"
    },
    {
      "children": [
        3
      ],
      "name": "RootNode"
    },
    {
      "children": [
        4
      ],
      "matrix": [
        1,
        0,
        0,
        0,
        0,
        2.220446049250313e-16,
        -1,
        0,
        0,
        1.2065446376800537,
        2.6790672739808257e-16,
        0,
        0,
        0,
        0,
        1
      ],
      "name": "Box001"
    },
    {
      "children": [
        5
      ],
      "matrix": [
        1,
        0,
        0,
        0,
        0,
        1,
        0,
        0,
        0,
        0,
        1,
        0,
        -0.9193458557128906,
        0,
        -8.175463676452637,
        1
      ],
      "name": "Object_4"
    },
    {
      "mesh": 0,
      "name": "Box001_Material #42_0"
    }
  ],
  "samplers": [
    {
      "magFilter": 9729,
      "minFilter": 9987,
      "wrapS": 10497,
      "wrapT": 10497
    }
  ],
  "scene": 0,
  "scenes": [
    {
      "name": "Sketchfab_Scene",
      "nodes": [
        0
      ]
    }
  ],
  "textures": [
    {
      "sampler": 0,
      "source": 0
    }
  ]
}
